{"glyphs":{"32":{"x_min":0,"x_max":0,"ha":195,"o":""},"33":{"x_min":25,"x_max":264,"ha":279,"o":"m 25 726 l 264 726 l 224 212 l 43 212 l 25 726 m 232 62 l 232 62 q 232 40 224 21 q 215 3 201 -11 q 188 -25 169 -33 q 150 -41 129 -41 l 129 -41 q 108 -41 89 -33 q 71 -25 57 -11 q 43 3 35 21 q 27 40 27 62 l 27 62 q 27 83 35 102 q 43 121 57 135 q 71 148 89 157 q 108 165 129 165 l 129 165 q 150 165 169 157 q 188 148 201 135 q 215 121 224 102 q 232 83 232 62"},"34":{"x_min":4,"x_max":483,"ha":479,"o":"m 4 784 l 239 789 l 185 492 l 34 487 l 4 784 m 248 755 l 483 760 l 429 463 l 278 458 l 248 755"},"35":{"x_min":21,"x_max":577,"ha":606,"o":"m 577 502 l 560 373 l 472 375 l 461 297 l 546 298 l 527 166 l 441 166 l 430 81 l 270 83 l 283 166 l 235 166 l 224 103 l 81 105 l 91 166 l 21 165 l 43 296 l 113 296 l 130 383 l 57 384 l 80 511 l 152 509 l 164 584 l 303 575 l 291 507 l 342 507 l 363 625 l 507 620 l 490 503 l 577 502 m 320 379 l 271 380 l 256 296 l 306 297 l 320 379"},"36":{"x_min":30,"x_max":417,"ha":437,"o":"m 191 -70 l 143 -67 l 148 125 q 132 128 116 132 q 100 136 85 141 q 69 146 55 150 q 41 155 30 160 l 30 160 l 46 280 q 77 265 115 257 q 153 249 191 249 l 191 249 q 198 249 208 250 q 218 250 227 252 q 236 254 243 259 q 250 264 250 272 l 250 272 q 250 281 240 286 q 230 291 218 293 q 205 295 191 295 q 178 296 171 296 l 171 296 q 140 296 114 304 q 88 313 69 328 q 50 343 40 365 q 30 386 30 413 l 30 413 q 30 438 38 459 q 47 481 62 499 q 78 516 99 530 q 120 543 145 552 l 145 552 l 137 758 l 190 753 l 190 563 q 197 565 203 566 q 209 566 216 567 l 216 567 l 215 758 l 268 757 l 261 567 q 293 566 326 561 q 359 556 386 545 l 386 545 l 374 421 q 348 428 320 433 q 293 438 268 438 l 268 438 q 260 438 247 437 q 234 437 222 434 q 209 432 200 427 q 191 422 192 413 l 192 413 q 192 406 198 402 q 204 398 213 397 q 222 395 233 395 q 245 395 255 396 q 266 396 275 396 q 284 397 290 396 l 290 396 q 319 395 342 386 q 366 377 382 363 q 399 348 408 327 q 417 307 417 282 l 417 282 q 417 248 405 222 q 394 195 373 176 q 353 157 324 144 q 295 132 261 126 l 261 126 l 269 -66 l 221 -71 l 219 121 q 212 120 206 120 q 199 120 192 120 l 192 120 l 190 120 l 191 -70"},"37":{"x_min":20,"x_max":705,"ha":725,"o":"m 705 208 l 705 208 q 705 182 694 157 q 683 132 663 112 q 642 92 613 80 q 584 67 547 67 l 547 67 q 511 67 482 80 q 453 92 433 112 q 413 132 402 157 q 391 182 391 208 l 391 208 q 391 233 402 259 q 413 284 433 304 q 453 324 482 336 q 511 349 547 349 l 547 349 q 584 349 613 336 q 642 324 663 304 q 683 284 694 259 q 705 233 705 208 m 594 209 l 594 209 q 594 217 592 226 q 589 235 583 243 q 577 251 568 256 q 559 262 546 262 l 546 262 q 534 262 524 256 q 515 251 509 243 q 503 235 500 226 q 498 217 498 209 l 498 209 q 498 201 500 192 q 503 183 509 175 q 515 167 524 162 q 534 156 546 156 l 546 156 q 559 156 568 162 q 577 167 583 175 q 589 183 592 192 q 594 201 594 209 m 333 450 l 333 450 q 333 424 323 399 q 312 374 292 354 q 271 334 242 322 q 213 310 176 310 l 176 310 q 140 310 111 322 q 82 334 62 354 q 42 374 31 399 q 20 424 20 450 l 20 450 q 20 476 31 501 q 42 526 62 546 q 82 566 111 578 q 140 591 176 591 l 176 591 q 213 591 242 578 q 271 566 292 546 q 312 526 323 501 q 333 476 333 450 m 223 451 l 223 451 q 223 459 220 468 q 218 477 212 485 q 206 493 197 499 q 188 504 175 504 l 175 504 q 163 504 153 499 q 144 493 138 485 q 132 477 129 468 q 126 459 126 451 l 126 451 q 126 443 129 434 q 132 425 138 417 q 144 409 153 404 q 163 398 175 398 l 175 398 q 188 398 197 404 q 206 409 212 417 q 218 425 220 434 q 223 443 223 451 m 458 639 l 529 607 q 466 471 413 330 q 359 189 313 46 l 313 46 l 211 83 q 240 154 269 224 q 297 295 327 365 q 357 435 390 503 q 422 572 458 639 l 458 639"},"38":{"x_min":8,"x_max":643,"ha":630,"o":"m 643 143 l 530 48 q 513 61 496 73 q 479 85 462 99 l 462 99 q 438 80 408 62 q 378 44 344 32 q 310 19 273 13 q 236 6 199 10 l 199 10 q 157 13 120 27 q 83 41 57 63 q 30 84 17 113 q 3 141 8 173 l 8 173 q 12 200 26 225 q 40 250 60 273 q 80 296 104 317 q 129 337 155 355 l 155 355 q 137 374 120 394 q 104 414 92 436 q 81 458 75 480 q 69 503 73 526 l 73 526 q 78 558 99 585 q 120 613 152 633 q 185 653 225 664 q 265 674 309 671 l 309 671 q 349 668 383 652 q 417 636 442 612 q 466 588 479 559 q 491 530 486 501 l 486 501 q 483 478 471 457 q 459 437 443 418 q 426 400 405 383 q 384 366 363 350 l 363 350 q 384 334 403 320 q 421 305 441 291 l 441 291 q 450 304 458 317 q 467 331 474 346 l 474 346 l 619 311 q 609 283 594 256 q 578 228 559 202 l 559 202 q 580 187 601 172 q 621 158 643 143 l 643 143 m 304 511 l 304 511 q 305 528 298 539 q 290 549 274 551 l 274 551 q 258 553 247 544 q 235 535 233 518 l 233 518 q 232 506 235 495 q 237 483 242 472 q 247 461 252 451 q 258 441 264 434 l 264 434 q 270 441 277 450 q 283 459 289 470 q 294 480 299 490 q 303 501 304 511 m 319 190 l 319 190 q 305 208 289 227 q 273 245 259 263 l 259 263 q 252 256 245 246 q 237 236 230 225 q 223 214 217 203 q 212 191 211 181 l 211 181 q 210 167 219 155 q 228 143 242 142 l 242 142 q 252 140 263 145 q 274 149 285 157 q 295 165 304 174 q 313 183 319 190"},"39":{"x_min":6,"x_max":241,"ha":232,"o":"m 6 784 l 241 789 l 187 492 l 36 487 l 6 784"},"40":{"x_min":13,"x_max":412,"ha":389,"o":"m 241 762 l 412 686 q 364 658 328 618 q 292 579 269 533 q 246 488 234 440 q 222 393 222 349 l 222 349 q 222 305 231 256 q 241 207 260 159 q 279 112 308 68 q 337 24 376 -10 l 376 -10 l 202 -81 q 166 -58 138 -26 q 110 5 89 42 q 68 79 54 120 q 40 160 31 200 q 21 241 17 280 q 13 318 13 353 l 13 353 q 13 406 28 463 q 42 521 71 575 q 100 630 142 679 q 185 727 241 762 l 241 762"},"41":{"x_min":-29,"x_max":369,"ha":382,"o":"m 369 328 l 369 328 q 369 292 363 255 q 356 217 343 179 q 331 142 311 105 q 292 68 267 34 q 241 0 210 -29 q 178 -58 141 -81 l 141 -81 l -29 -5 q 18 23 53 63 q 88 103 111 148 q 134 193 145 240 q 156 288 156 332 l 156 332 q 156 376 147 425 q 138 474 120 522 q 101 569 73 613 q 44 657 5 691 l 5 691 l 179 762 q 214 738 242 706 q 271 674 292 637 q 313 601 327 560 q 342 520 352 480 q 361 439 365 401 q 369 362 369 328"},"42":{"x_min":20,"x_max":513,"ha":542,"o":"m 513 495 l 396 449 l 489 334 l 362 231 l 270 371 l 181 224 l 54 321 l 143 430 l 20 478 l 80 619 l 183 567 l 180 713 l 342 719 l 336 562 l 441 640 l 513 495"},"43":{"x_min":24,"x_max":430,"ha":456,"o":"m 304 108 l 149 110 l 148 238 l 26 240 l 24 387 l 146 391 l 146 506 l 298 521 l 300 397 l 428 401 l 430 234 l 302 236 l 304 108"},"44":{"x_min":8,"x_max":213,"ha":223,"o":"m 213 111 l 213 108 q 212 85 203 58 q 193 30 176 3 q 158 -24 134 -49 q 109 -73 78 -89 l 78 -89 q 78 -88 78 -77 q 77 -66 76 -51 q 76 -35 75 -17 q 74 1 73 16 l 73 16 q 43 27 25 53 q 8 80 8 111 l 8 111 q 8 132 16 151 q 24 169 38 183 q 52 197 70 206 q 89 214 110 214 l 110 214 q 131 214 150 206 q 169 197 183 183 q 197 169 205 151 q 213 132 213 111 l 213 111"},"45":{"x_min":32,"x_max":349,"ha":382,"o":"m 349 264 l 34 270 l 32 416 l 347 431 l 349 264"},"46":{"x_min":9,"x_max":214,"ha":222,"o":"m 214 101 l 214 101 q 214 79 206 61 q 197 42 183 28 q 169 14 151 6 q 132 -2 111 -2 l 111 -2 q 90 -2 71 6 q 53 14 39 28 q 25 42 17 61 q 9 79 9 101 l 9 101 q 9 122 17 141 q 25 160 39 174 q 53 188 71 196 q 90 204 111 204 l 111 204 q 132 204 151 196 q 169 188 183 174 q 197 160 206 141 q 214 122 214 101"},"47":{"x_min":20,"x_max":485,"ha":505,"o":"m 329 732 l 485 664 q 406 494 340 318 q 273 142 215 -38 l 215 -38 l 20 38 q 56 126 91 215 q 127 303 164 390 q 202 477 242 563 q 283 649 329 732 l 329 732"},"48":{"x_min":14,"x_max":619,"ha":633,"o":"m 619 350 l 619 350 q 619 307 609 264 q 600 222 582 183 q 563 144 537 110 q 511 76 478 51 q 444 26 404 12 q 363 -2 317 -2 l 317 -2 q 270 -2 229 12 q 189 26 156 51 q 122 76 96 110 q 69 144 51 183 q 33 222 24 264 q 14 307 14 350 l 14 350 q 14 392 24 435 q 33 478 51 517 q 69 556 96 590 q 122 624 156 649 q 189 674 230 688 q 271 702 317 702 l 317 702 q 363 702 404 688 q 444 674 478 649 q 511 624 537 590 q 563 556 582 517 q 600 478 609 435 q 619 392 619 350 m 413 335 l 413 335 q 413 356 407 383 q 401 409 389 432 q 376 455 357 471 q 338 486 312 486 l 312 486 q 285 486 266 471 q 247 455 235 432 q 222 409 216 383 q 210 356 210 335 l 210 335 q 210 313 216 287 q 222 261 235 238 q 247 215 266 199 q 285 184 312 184 l 312 184 q 338 184 357 199 q 376 215 389 238 q 401 261 407 287 q 413 313 413 335"},"49":{"x_min":-15,"x_max":366,"ha":388,"o":"m 145 712 l 366 702 l 338 8 l 125 18 l 137 479 l 59 426 l -15 593 l 145 712"},"50":{"x_min":14,"x_max":492,"ha":509,"o":"m 492 460 l 492 460 q 492 421 478 385 q 464 350 441 319 q 417 288 388 262 q 358 236 328 215 l 328 215 l 482 215 l 471 12 l 14 27 l 14 205 q 40 214 68 226 q 97 239 124 255 q 152 271 177 291 q 201 311 220 335 q 239 358 250 386 q 261 414 261 446 l 261 446 q 261 465 254 479 q 248 493 236 503 q 224 512 209 517 q 193 521 176 521 l 176 521 q 161 521 146 518 q 131 515 116 509 q 102 503 89 495 q 76 486 65 476 l 65 476 l 22 667 q 41 685 64 697 q 87 709 113 717 q 139 725 166 728 q 193 731 219 731 l 219 731 q 276 731 326 711 q 376 690 413 654 q 450 617 471 567 q 492 518 492 460"},"51":{"x_min":9,"x_max":511,"ha":528,"o":"m 511 246 l 511 246 q 511 181 490 134 q 469 86 432 54 q 395 23 344 8 q 292 -8 230 -8 l 230 -8 q 203 -8 173 -2 q 144 3 115 12 q 86 21 59 34 q 32 47 9 62 l 9 62 l 27 258 q 46 245 69 234 q 92 222 116 213 q 141 204 166 199 q 191 193 215 193 l 215 193 q 229 193 243 196 q 257 198 269 204 q 281 209 288 220 q 296 231 296 248 l 296 248 q 296 259 286 268 q 276 277 263 284 q 249 291 234 294 q 220 298 210 298 l 210 298 q 203 298 194 297 q 184 296 174 295 q 165 293 156 291 q 146 288 142 284 l 142 284 l 145 424 q 153 423 160 422 q 167 422 176 422 l 176 422 q 193 422 213 425 q 233 428 250 436 q 267 444 279 458 q 290 473 290 495 l 290 495 q 290 511 281 521 q 272 531 260 537 q 247 542 231 544 q 216 546 204 546 l 204 546 q 165 546 126 532 q 88 519 59 492 l 59 492 l 18 670 q 63 707 120 726 q 177 745 235 745 l 235 745 q 289 745 337 730 q 386 714 423 684 q 460 654 482 610 q 504 566 504 509 l 504 509 q 504 492 499 475 q 494 458 486 442 q 478 426 466 412 q 455 398 442 388 l 442 388 q 463 378 476 363 q 489 347 497 328 q 505 309 508 288 q 511 267 511 246"},"52":{"x_min":0,"x_max":521,"ha":539,"o":"m 521 364 l 521 234 l 479 233 l 470 22 l 249 3 l 261 229 l 0 223 l 72 651 l 257 651 l 203 353 l 268 354 l 286 725 l 498 725 l 483 362 l 521 364"},"53":{"x_min":13,"x_max":521,"ha":531,"o":"m 521 246 l 521 246 q 521 183 498 136 q 475 89 436 58 q 397 27 344 12 q 292 -3 231 -3 l 231 -3 q 203 -3 175 1 q 147 5 120 12 q 93 20 66 29 q 40 38 13 49 l 13 49 l 31 243 q 49 233 69 225 q 89 217 110 211 q 131 205 153 202 q 175 198 195 198 l 195 198 q 208 198 225 200 q 243 203 259 209 q 275 215 286 225 q 298 236 298 253 l 298 253 q 298 269 289 281 q 280 292 265 300 q 251 308 233 312 q 215 316 197 319 q 178 321 162 322 q 146 322 135 322 l 135 322 q 113 322 90 320 q 67 318 46 313 l 46 313 l 65 707 l 461 718 l 472 514 l 227 527 l 222 440 q 244 446 266 448 q 288 451 310 451 l 310 451 q 354 451 392 437 q 431 422 459 396 q 488 369 504 331 q 521 293 521 246"},"54":{"x_min":16,"x_max":565,"ha":573,"o":"m 565 249 l 565 249 q 565 189 544 141 q 523 92 487 58 q 450 23 399 4 q 348 -15 289 -15 l 289 -15 q 241 -15 202 -1 q 163 12 133 35 q 102 59 80 91 q 58 123 44 161 q 29 198 22 240 q 16 282 16 325 l 16 325 q 16 378 23 428 q 31 478 48 522 q 64 566 90 603 q 116 640 151 667 q 187 693 233 708 q 279 723 337 723 l 337 723 q 358 723 380 721 q 402 719 424 715 q 446 710 467 703 q 487 696 506 685 l 506 685 l 491 492 q 457 509 416 518 q 376 527 338 527 l 338 527 q 308 527 286 518 q 264 509 249 493 q 233 476 225 453 q 216 430 214 401 l 214 401 q 246 420 283 431 q 319 441 357 441 l 357 441 q 400 441 438 428 q 477 415 505 390 q 533 365 549 330 q 565 294 565 249 m 380 234 l 380 234 q 380 250 373 261 q 367 273 356 282 q 346 291 332 295 q 318 300 305 300 l 305 300 q 291 300 278 295 q 265 291 254 282 q 244 273 237 261 q 230 250 230 234 l 230 234 q 230 220 237 208 q 244 196 254 188 q 265 179 278 175 q 291 170 305 170 l 305 170 q 318 170 332 175 q 346 179 356 188 q 367 196 373 208 q 380 220 380 234"},"55":{"x_min":9,"x_max":493,"ha":506,"o":"m 493 715 l 493 537 q 444 399 404 287 l 404 287 q 387 239 370 192 q 354 146 340 107 q 326 69 316 42 q 307 16 305 10 l 305 10 l 49 24 l 274 510 l 9 495 l 9 706 l 493 715"},"56":{"x_min":14,"x_max":557,"ha":571,"o":"m 557 216 l 557 216 q 557 176 546 145 q 536 114 517 90 q 498 65 472 48 q 447 31 416 20 q 386 9 352 4 q 318 -1 284 -1 l 284 -1 q 234 -1 186 12 q 138 25 100 52 q 62 80 38 120 q 14 161 14 216 l 14 216 q 14 238 20 261 q 25 284 35 304 q 45 325 61 341 q 77 358 97 369 l 97 369 q 65 398 49 435 q 33 473 33 516 l 33 516 q 33 566 55 604 q 77 642 113 667 q 149 693 194 706 q 239 719 284 719 l 284 719 q 313 719 344 713 q 374 707 401 696 q 429 685 453 667 q 478 650 495 628 q 513 605 523 577 q 534 549 534 516 l 534 516 q 534 473 518 435 q 501 398 469 369 l 469 369 q 516 345 537 306 q 557 268 557 216 m 365 469 l 365 469 q 365 485 358 498 q 351 511 339 520 q 327 529 313 534 q 298 539 284 539 l 284 539 q 269 539 254 534 q 239 529 228 520 q 216 511 209 498 q 202 485 202 469 l 202 469 q 202 453 209 440 q 216 427 228 418 q 239 409 254 404 q 269 399 284 399 l 284 399 q 298 399 313 404 q 327 409 339 418 q 351 427 358 440 q 365 453 365 469 m 364 239 l 364 239 q 364 255 357 268 q 350 281 338 290 q 327 299 313 304 q 298 309 284 309 l 284 309 q 269 309 255 304 q 240 299 229 290 q 217 281 210 268 q 203 255 203 239 l 203 239 q 203 224 210 211 q 217 198 229 189 q 240 181 255 176 q 269 171 284 171 l 284 171 q 298 171 313 176 q 327 181 338 189 q 350 198 357 211 q 364 224 364 239"},"57":{"x_min":13,"x_max":539,"ha":555,"o":"m 539 399 l 539 399 q 539 353 532 306 q 524 259 509 215 q 494 170 470 132 q 446 93 413 65 q 379 36 336 20 q 293 3 239 3 l 239 3 q 216 3 190 5 q 165 7 139 12 q 114 18 90 27 q 66 36 47 50 l 47 50 l 72 234 q 87 226 106 218 q 125 210 146 205 q 166 199 186 196 q 206 192 224 192 l 224 192 q 252 192 273 200 q 293 208 308 224 q 322 239 331 260 q 340 281 344 308 l 344 308 q 314 292 282 284 q 250 275 217 275 l 217 275 q 176 275 139 288 q 102 301 74 324 q 46 348 29 382 q 13 417 13 460 l 13 460 q 13 516 33 562 q 53 608 88 642 q 124 675 172 693 q 220 712 275 712 l 275 712 q 343 712 393 687 q 442 662 475 619 q 507 576 523 520 q 539 463 539 399 m 337 471 l 337 471 q 337 485 330 497 q 324 509 313 517 q 303 525 290 530 q 277 534 264 534 l 264 534 q 250 534 238 530 q 225 526 215 518 q 205 510 198 498 q 192 487 192 473 l 192 473 q 192 458 199 447 q 206 435 216 427 q 226 418 239 414 q 252 409 266 409 l 266 409 q 279 409 292 414 q 304 418 314 426 q 325 434 331 445 q 337 457 337 471"},"58":{"x_min":21,"x_max":227,"ha":248,"o":"m 227 101 l 227 101 q 227 79 218 61 q 210 42 196 28 q 182 14 164 6 q 145 -2 124 -2 l 124 -2 q 103 -2 84 6 q 65 14 52 28 q 38 42 30 61 q 21 79 21 101 l 21 101 q 21 122 30 141 q 38 160 52 174 q 65 188 84 196 q 103 204 124 204 l 124 204 q 145 204 164 196 q 182 188 196 174 q 210 160 218 141 q 227 122 227 101 m 227 413 l 227 413 q 227 392 218 373 q 210 354 196 341 q 182 327 164 319 q 145 311 124 311 l 124 311 q 103 311 84 319 q 65 327 52 341 q 38 354 30 373 q 21 392 21 413 l 21 413 q 21 434 30 453 q 38 472 52 486 q 65 500 84 508 q 103 517 124 517 l 124 517 q 145 517 164 508 q 182 500 196 486 q 210 472 218 453 q 227 434 227 413"},"59":{"x_min":21,"x_max":226,"ha":247,"o":"m 226 111 l 226 108 q 225 85 216 58 q 206 30 188 3 q 171 -24 146 -49 q 122 -73 91 -89 l 91 -89 q 91 -88 90 -77 q 90 -66 89 -51 q 88 -35 87 -17 q 86 1 86 16 l 86 16 q 56 27 38 53 q 21 80 21 111 l 21 111 q 21 132 29 151 q 37 169 51 183 q 64 197 83 206 q 102 214 123 214 l 123 214 q 144 214 163 206 q 182 197 196 183 q 209 169 218 151 q 226 132 226 111 l 226 111 m 226 413 l 226 413 q 226 392 217 373 q 209 354 195 341 q 181 327 163 319 q 144 311 123 311 l 123 311 q 102 311 83 319 q 64 327 51 341 q 37 354 29 373 q 21 392 21 413 l 21 413 q 21 434 29 453 q 37 472 51 486 q 64 500 83 508 q 102 517 123 517 l 123 517 q 144 517 163 508 q 181 500 195 486 q 209 472 217 453 q 226 434 226 413"},"60":{"x_min":22,"x_max":432,"ha":455,"o":"m 432 219 l 352 51 l 29 244 l 22 424 l 351 632 l 420 466 l 181 341 l 432 219"},"61":{"x_min":36,"x_max":353,"ha":391,"o":"m 353 122 l 38 143 l 36 289 l 351 289 l 353 122 m 353 332 l 38 338 l 36 484 l 351 499 l 353 332"},"62":{"x_min":23,"x_max":434,"ha":455,"o":"m 434 260 l 104 51 l 33 219 l 273 344 l 23 466 l 103 632 l 426 440 l 434 260"},"63":{"x_min":20,"x_max":534,"ha":554,"o":"m 316 190 l 316 190 l 151 190 q 147 242 157 277 q 166 312 182 335 q 198 358 218 373 q 237 387 256 398 q 275 408 289 418 q 304 428 309 442 l 309 442 q 313 451 311 463 q 310 474 301 484 q 292 495 276 502 q 259 509 232 509 l 232 509 q 214 509 190 506 q 166 502 140 496 q 113 489 88 480 q 62 470 42 458 l 42 458 l 20 649 q 38 660 61 672 q 83 683 111 692 q 138 701 170 707 q 203 713 240 713 l 240 713 q 300 713 353 696 q 407 680 447 647 q 487 615 510 568 q 534 521 534 460 l 534 460 q 534 414 521 385 q 507 357 487 339 q 466 321 441 309 q 416 297 391 282 q 367 268 347 247 q 327 226 316 190 m 340 62 l 340 62 q 340 40 332 21 q 324 3 310 -11 q 296 -25 277 -33 q 259 -41 238 -41 l 238 -41 q 216 -41 198 -33 q 179 -25 165 -11 q 151 3 143 21 q 135 40 135 62 l 135 62 q 135 83 143 102 q 151 121 165 135 q 179 148 198 157 q 216 165 238 165 l 238 165 q 259 165 277 157 q 296 148 310 135 q 324 121 332 102 q 340 83 340 62"},"64":{"x_min":32,"x_max":643,"ha":665,"o":"m 643 375 l 643 375 q 643 281 604 233 q 565 185 489 184 l 489 184 q 460 183 439 187 q 417 192 403 199 q 388 206 380 214 q 372 223 370 229 l 370 229 q 360 213 344 208 q 327 202 312 202 l 312 202 q 287 202 265 209 q 244 216 228 230 q 211 245 202 267 q 192 289 192 319 l 192 319 q 192 347 201 368 q 210 389 227 403 q 243 417 264 424 q 286 431 312 431 l 312 431 q 331 431 349 421 q 367 412 378 389 l 378 389 l 378 438 l 481 439 l 479 263 l 491 265 q 499 267 504 275 l 504 275 q 509 283 513 298 q 518 314 518 342 l 518 342 q 518 385 505 416 q 492 447 468 466 q 444 486 410 495 q 375 504 331 504 l 331 504 q 283 503 246 485 l 246 485 q 229 478 214 465 q 199 453 187 435 q 175 417 167 391 q 160 366 160 332 l 160 332 q 160 291 169 261 q 178 232 193 212 q 208 192 226 181 q 245 169 265 164 l 265 164 q 311 150 370 161 l 370 161 l 370 68 q 300 54 238 65 q 177 76 131 110 q 85 145 59 200 q 32 255 32 328 l 32 328 q 32 400 51 451 q 70 501 100 536 q 130 570 167 590 q 204 609 240 620 q 276 630 307 633 q 338 636 356 636 l 356 636 q 422 636 475 615 q 528 595 565 560 q 603 524 623 477 q 643 429 643 375 m 300 323 l 300 323 q 300 305 307 292 q 315 280 331 280 l 331 280 q 347 280 358 292 q 368 305 368 323 l 368 323 q 368 340 358 348 q 347 356 331 356 l 331 356 q 300 356 300 323"},"65":{"x_min":-16,"x_max":641,"ha":626,"o":"m 450 699 l 641 42 l 398 11 l 369 121 l 258 121 l 233 11 l -16 35 l 179 686 l 450 699 m 278 271 l 352 271 l 314 440 l 278 271"},"66":{"x_min":26,"x_max":593,"ha":594,"o":"m 593 174 l 593 174 q 593 133 578 104 q 563 75 539 54 q 514 34 481 21 q 449 8 414 0 q 378 -7 343 -9 q 308 -12 277 -12 l 277 -12 q 247 -12 214 -10 q 182 -7 149 -2 q 117 3 86 12 q 55 21 27 35 l 27 35 l 26 664 q 53 675 84 684 q 115 693 147 699 q 179 706 210 709 q 242 712 272 712 l 272 712 q 307 712 342 708 q 377 703 410 693 q 443 683 471 666 q 500 650 521 626 q 542 602 554 570 q 566 539 566 497 l 566 497 q 566 470 558 446 q 550 422 536 403 q 521 384 500 370 q 479 357 453 351 l 453 351 q 484 342 510 326 q 537 310 555 287 q 573 264 583 235 q 593 207 593 174 m 345 452 l 345 452 q 345 466 339 476 q 333 486 325 493 q 316 499 306 502 q 296 505 289 505 l 289 505 q 279 505 270 502 q 260 499 251 495 l 251 495 l 249 387 q 260 387 276 389 q 293 391 308 397 q 324 404 334 417 q 345 430 345 452 m 276 293 l 276 293 q 262 293 249 290 l 249 290 l 247 179 q 254 177 261 176 q 268 175 275 175 l 275 175 q 285 175 297 177 q 310 179 320 186 q 331 192 338 204 q 345 215 345 233 l 345 233 q 345 252 338 264 q 331 275 321 282 q 311 289 298 291 q 286 293 276 293"},"67":{"x_min":7,"x_max":509,"ha":515,"o":"m 509 687 l 509 687 l 481 480 q 467 484 453 486 q 439 487 425 487 l 425 487 q 389 487 356 478 q 323 468 298 449 q 273 429 258 400 q 243 371 243 331 l 243 331 q 243 306 251 287 q 259 269 274 256 q 289 244 309 238 q 329 232 353 232 l 353 232 q 371 232 390 236 q 410 240 429 247 q 448 253 466 261 q 484 270 499 278 l 499 278 l 479 49 q 460 39 438 31 q 416 24 393 18 q 369 13 346 10 q 322 7 301 7 l 301 7 q 239 7 185 30 q 131 53 92 93 q 52 133 30 187 q 7 242 7 305 l 7 305 q 7 388 31 462 q 55 536 101 592 q 147 647 216 680 q 285 712 374 712 l 374 712 q 408 712 443 707 q 479 701 509 687"},"68":{"x_min":21,"x_max":578,"ha":583,"o":"m 578 388 l 578 388 q 578 319 561 264 q 543 209 511 167 q 480 124 437 93 q 393 63 341 43 q 290 23 231 13 q 173 4 111 4 l 111 4 q 88 4 66 5 q 44 6 21 9 l 21 9 l 35 664 q 89 681 146 688 q 203 695 259 695 l 259 695 q 329 695 387 674 q 446 653 488 614 q 531 574 554 517 q 578 460 578 388 m 378 350 l 378 356 q 378 383 372 407 q 366 432 352 450 q 338 469 317 481 q 295 492 266 493 l 266 493 l 246 190 q 275 195 299 210 q 323 225 341 246 q 358 268 367 295 q 377 321 378 350 l 378 350"},"69":{"x_min":21,"x_max":487,"ha":479,"o":"m 37 704 l 487 704 q 484 658 482 613 q 479 568 476 522 l 476 522 l 269 512 l 264 450 l 409 450 l 398 299 l 252 294 l 247 223 l 368 223 l 454 223 q 451 169 448 116 q 445 63 442 10 l 442 10 l 21 0 l 37 704"},"70":{"x_min":21,"x_max":487,"ha":487,"o":"m 37 704 l 487 704 q 484 658 482 613 q 479 568 476 522 l 476 522 l 269 512 l 269 450 l 448 450 l 438 299 l 268 294 l 269 5 l 21 0 l 37 704"},"71":{"x_min":4,"x_max":614,"ha":626,"o":"m 608 428 l 614 100 q 591 71 558 49 q 524 28 485 14 q 447 0 406 -8 q 366 -15 329 -15 l 329 -15 q 258 -15 199 11 q 139 36 96 81 q 53 125 28 186 q 4 247 4 316 l 4 316 q 4 370 16 421 q 28 472 51 517 q 74 562 106 600 q 139 638 181 665 q 222 692 271 708 q 321 723 377 723 l 377 723 q 398 723 422 721 q 446 719 469 715 q 493 711 516 704 q 538 696 557 686 l 557 686 l 543 499 q 516 509 487 513 q 458 517 430 517 l 430 517 q 391 517 357 505 q 323 493 298 470 q 272 448 258 416 q 243 383 243 343 l 243 343 q 243 317 250 294 q 257 270 271 252 q 285 233 305 222 q 326 211 354 211 l 354 211 q 372 211 392 216 q 412 221 426 232 l 426 232 l 428 271 l 311 272 l 316 419 q 389 421 462 423 q 535 425 608 428 l 608 428"},"72":{"x_min":21,"x_max":604,"ha":626,"o":"m 589 696 l 604 0 l 360 -12 l 358 214 l 246 214 l 239 0 l 21 0 l 39 687 l 271 676 l 257 325 l 365 325 l 366 702 l 589 696"},"73":{"x_min":29,"x_max":289,"ha":297,"o":"m 29 674 l 289 688 l 235 22 l 29 12 l 29 674"},"74":{"x_min":-7,"x_max":491,"ha":510,"o":"m 491 402 l 491 402 q 491 374 491 345 q 491 317 488 288 l 488 288 q 483 227 462 173 q 441 118 405 77 q 369 36 318 12 q 267 -12 200 -12 l 200 -12 q 174 -12 146 -7 q 118 -3 91 6 q 63 15 38 28 q 13 41 -7 58 l -7 58 l 23 260 q 52 232 87 215 q 123 197 164 197 l 164 197 q 191 197 209 205 q 228 213 240 227 q 252 240 260 259 q 267 277 270 298 q 273 318 274 340 q 274 362 274 384 l 274 384 q 274 461 267 538 q 259 615 253 692 l 253 692 l 477 707 q 491 555 491 402"},"75":{"x_min":21,"x_max":644,"ha":614,"o":"m 398 719 l 644 699 l 409 374 l 607 28 l 380 -12 l 232 199 l 224 -21 l 21 -29 l 37 719 l 264 706 l 247 485 l 398 719"},"76":{"x_min":22,"x_max":454,"ha":452,"o":"m 454 278 l 454 278 l 434 62 l 22 29 q 25 200 29 368 q 33 537 38 707 l 38 707 l 292 707 q 281 600 271 493 q 260 387 256 278 l 256 278 q 279 277 301 277 q 324 277 347 277 l 347 277 q 374 277 400 278 q 427 278 454 278"},"77":{"x_min":24,"x_max":780,"ha":791,"o":"m 517 712 l 780 712 l 735 -5 l 512 -15 l 514 363 l 414 59 l 328 59 l 250 331 l 250 15 l 24 8 l 34 683 l 285 692 l 384 369 l 517 712"},"78":{"x_min":20,"x_max":689,"ha":704,"o":"m 458 692 l 689 700 l 654 38 l 398 15 l 261 369 l 240 8 l 20 8 l 38 700 l 282 712 l 451 360 l 458 692"},"79":{"x_min":8,"x_max":628,"ha":638,"o":"m 628 345 l 628 345 q 628 300 618 259 q 608 218 589 182 q 569 146 542 115 q 514 85 480 64 q 445 42 405 31 q 364 19 319 19 l 319 19 q 275 19 235 30 q 195 41 161 61 q 126 82 98 110 q 70 139 50 174 q 30 208 19 249 q 8 289 8 332 l 8 332 q 8 375 19 415 q 29 456 48 492 q 67 528 95 559 q 122 589 156 611 q 190 633 229 645 q 269 657 313 657 l 313 657 q 384 657 442 635 q 500 613 542 573 q 583 532 606 474 q 628 416 628 345 m 412 332 l 412 332 q 412 353 406 373 q 399 393 388 408 q 376 423 359 433 q 341 442 319 442 l 319 442 q 296 442 278 434 q 260 426 247 411 q 234 397 227 378 q 220 358 220 337 l 220 337 q 220 316 226 296 q 232 275 244 259 q 255 242 273 232 q 290 222 313 222 l 313 222 q 336 222 354 231 q 373 240 385 255 q 398 271 405 291 q 412 311 412 332"},"80":{"x_min":26,"x_max":594,"ha":596,"o":"m 594 470 l 594 470 q 594 422 580 386 q 565 349 541 322 q 516 294 483 275 q 450 256 412 244 q 374 232 333 227 q 293 221 254 221 l 254 221 l 254 -7 l 26 -7 q 26 105 27 216 q 27 327 28 439 l 28 439 q 29 499 29 559 q 28 618 31 679 l 31 679 q 94 697 156 707 q 219 716 285 716 l 285 716 q 323 716 360 710 q 398 704 432 690 q 467 677 496 657 q 526 638 547 610 q 569 583 581 548 q 594 513 594 470 m 377 453 l 377 453 q 377 485 358 503 q 338 521 308 521 l 308 521 q 297 521 286 519 q 275 517 266 515 l 266 515 l 260 372 q 267 371 273 371 q 279 371 286 371 l 286 371 q 304 371 320 377 q 336 383 349 394 q 362 405 369 420 q 377 435 377 453"},"81":{"x_min":4,"x_max":681,"ha":691,"o":"m 681 363 l 681 363 q 681 289 654 222 q 626 154 571 104 l 571 104 l 638 23 l 459 -92 l 417 23 q 399 20 380 18 q 361 16 342 16 l 342 16 q 295 16 252 27 q 209 39 172 60 q 134 82 104 112 q 73 142 51 179 q 28 216 16 260 q 4 303 4 350 l 4 350 q 4 396 16 440 q 27 483 49 522 q 70 561 100 593 q 130 625 167 648 q 204 671 247 684 q 290 696 337 696 l 337 696 q 413 696 476 673 q 540 650 585 607 q 630 564 656 503 q 681 441 681 363 m 444 350 l 444 350 q 444 372 437 393 q 431 415 418 431 q 405 447 386 457 q 367 467 342 467 l 342 467 q 318 467 298 458 q 279 450 265 435 q 251 419 243 399 q 236 378 236 354 l 236 354 q 236 332 242 310 q 249 289 262 271 q 274 254 293 243 q 313 232 337 232 l 337 232 q 361 232 381 242 q 401 251 415 268 q 429 284 436 305 q 444 326 444 350"},"82":{"x_min":21,"x_max":597,"ha":606,"o":"m 597 471 l 597 471 q 597 433 591 402 q 584 371 570 345 q 556 319 533 297 q 511 275 479 255 l 479 255 l 595 48 l 375 5 l 300 213 l 240 211 l 231 8 l 21 8 q 23 119 26 229 q 28 340 31 451 l 31 451 q 32 507 33 563 q 34 618 37 674 l 37 674 q 71 687 104 695 q 137 703 171 708 q 204 712 239 714 q 273 716 309 716 l 309 716 q 365 716 417 700 q 469 685 509 654 q 549 624 573 578 q 597 532 597 471 m 378 455 l 378 455 q 378 476 373 493 q 367 510 356 522 q 345 535 329 542 q 313 549 291 549 l 291 549 q 281 549 271 548 q 262 546 253 544 l 253 544 l 246 362 l 257 362 q 278 362 300 368 q 322 373 339 384 q 356 396 367 413 q 378 431 378 455"},"83":{"x_min":13,"x_max":525,"ha":531,"o":"m 525 260 l 525 260 q 525 193 502 143 q 479 93 438 60 q 398 26 344 10 q 290 -7 228 -7 l 228 -7 q 204 -7 176 0 q 147 6 118 15 q 88 25 61 36 q 34 47 13 57 l 13 57 l 35 258 q 76 233 127 220 q 177 207 226 207 l 226 207 q 235 207 249 208 q 262 208 274 212 q 286 216 294 223 q 302 230 302 244 l 302 244 q 302 253 296 260 q 291 267 281 271 q 272 275 260 277 q 249 279 237 280 q 226 281 216 281 q 207 281 201 281 l 201 281 q 159 281 124 296 q 90 311 65 337 q 41 363 27 399 q 13 435 13 477 l 13 477 q 13 534 36 580 q 60 625 98 657 q 137 689 188 707 q 238 724 292 724 l 292 724 q 315 724 341 722 q 366 720 391 716 q 417 711 440 705 q 464 698 486 688 l 486 688 l 467 489 q 434 500 398 508 q 361 516 327 516 l 327 516 q 320 516 310 515 q 300 515 289 514 q 278 513 267 510 q 256 508 247 504 q 238 500 233 493 q 228 486 228 477 l 228 477 q 229 466 236 459 q 244 453 256 449 q 268 445 282 444 q 296 442 311 442 q 325 442 337 442 q 349 442 357 441 l 357 441 q 396 439 427 425 q 458 411 480 387 q 502 364 513 331 q 525 299 525 260"},"84":{"x_min":3,"x_max":541,"ha":543,"o":"m 9 697 l 541 698 l 536 491 l 391 485 l 354 22 l 147 12 l 148 475 l 3 467 l 9 697"},"85":{"x_min":16,"x_max":609,"ha":623,"o":"m 609 543 l 609 543 q 609 507 605 463 q 602 420 594 374 q 586 327 574 280 q 562 232 543 188 q 524 144 500 106 q 475 67 443 39 q 411 10 372 -6 q 332 -22 284 -22 l 284 -22 q 227 -22 185 -4 q 144 14 114 45 q 84 76 65 117 q 46 159 35 205 q 24 251 20 299 q 16 347 16 392 l 16 392 q 16 460 23 528 q 30 596 42 664 l 42 664 l 271 655 q 258 579 248 501 q 239 424 239 346 l 239 346 q 239 337 240 321 q 240 305 242 284 q 244 264 248 243 q 251 222 258 204 q 264 187 273 175 q 282 164 294 164 l 294 164 q 309 164 320 177 q 331 191 340 213 q 348 236 354 265 q 361 294 365 326 q 370 358 372 390 q 375 421 377 449 q 378 476 379 497 q 379 518 379 528 l 379 528 q 379 566 378 604 q 377 642 375 680 l 375 680 l 603 680 q 609 612 609 543"},"86":{"x_min":-19,"x_max":622,"ha":613,"o":"m 397 699 l 622 685 l 443 5 l 201 -9 l -19 678 l 213 699 l 307 299 l 397 699"},"87":{"x_min":2,"x_max":906,"ha":908,"o":"m 665 699 l 906 678 l 792 1 l 514 -5 l 455 346 l 395 21 l 118 11 l 2 678 l 245 699 l 293 294 l 359 699 l 549 699 l 625 289 l 665 699"},"88":{"x_min":-22,"x_max":613,"ha":588,"o":"m 382 712 l 613 685 l 422 354 l 584 65 l 380 2 l 292 201 l 189 1 l -22 77 l 158 360 l -6 658 l 217 712 l 297 516 l 382 712"},"89":{"x_min":6,"x_max":652,"ha":607,"o":"m 418 678 l 652 661 l 384 286 l 371 -20 l 140 -20 l 146 284 l 6 646 l 255 678 l 294 467 l 418 678"},"90":{"x_min":6,"x_max":472,"ha":487,"o":"m 463 712 l 472 536 l 248 234 l 464 234 l 461 27 l 25 10 l 6 201 l 261 533 l 27 516 l 25 712 l 463 712"},"91":{"x_min":31,"x_max":370,"ha":366,"o":"m 370 758 l 360 629 l 230 632 l 215 68 l 352 67 l 351 -71 q 311 -69 270 -68 q 229 -67 187 -67 l 187 -67 q 149 -67 110 -68 q 72 -69 34 -72 l 34 -72 q 31 48 31 168 l 31 168 q 31 317 35 465 q 40 613 47 761 l 47 761 q 85 763 123 764 q 160 765 198 765 l 198 765 q 242 765 284 763 q 327 762 370 758 l 370 758"},"92":{"x_min":21,"x_max":486,"ha":505,"o":"m 486 30 l 330 -38 q 284 45 243 131 q 203 217 165 304 q 128 391 92 479 q 57 568 21 656 l 21 656 l 216 732 q 274 553 341 377 q 407 201 486 30 l 486 30"},"93":{"x_min":-4,"x_max":335,"ha":365,"o":"m 335 526 l 335 526 q 335 377 330 229 q 326 81 317 -68 l 317 -68 q 280 -71 242 -72 q 205 -72 167 -72 l 167 -72 q 124 -72 81 -71 q 39 -69 -4 -65 l -4 -65 l 5 65 l 135 62 l 150 626 l 12 627 l 14 764 q 54 762 95 761 q 136 760 178 760 l 178 760 q 217 760 255 761 q 294 762 332 765 l 332 765 q 333 704 334 646 q 335 587 335 526"},"94":{"x_min":0,"x_max":485,"ha":485,"o":"m 485 351 l 305 314 q 304 314 300 329 q 296 343 290 365 q 283 387 276 412 q 269 438 262 460 q 256 482 252 497 q 248 512 248 513 l 248 513 q 230 468 214 422 q 198 376 184 330 l 184 330 l 0 373 q 11 400 27 435 q 43 470 61 506 q 78 543 95 578 q 112 613 126 640 q 140 667 148 684 q 157 701 157 701 l 157 701 l 341 705 q 340 705 348 687 q 356 668 368 639 q 381 609 397 572 q 413 534 429 495 q 445 456 460 418 q 475 380 485 351 l 485 351"},"95":{"x_min":-8,"x_max":310,"ha":302,"o":"m 310 -213 l -6 -207 l -8 -61 l 308 -46 l 310 -213"},"96":{"x_min":0,"x_max":283,"ha":283,"o":"m 283 732 l 218 667 q 164 708 110 742 q 57 777 0 811 l 0 811 l 97 925 q 136 888 171 854 l 171 854 q 187 838 202 822 q 218 806 233 790 q 248 774 261 760 q 274 745 283 732 l 283 732"},"97":{"x_min":-16,"x_max":641,"ha":626,"o":"m 450 699 l 641 42 l 398 11 l 369 121 l 258 121 l 233 11 l -16 35 l 179 686 l 450 699 m 278 271 l 352 271 l 314 440 l 278 271"},"98":{"x_min":26,"x_max":593,"ha":594,"o":"m 593 174 l 593 174 q 593 133 578 104 q 563 75 539 54 q 514 34 481 21 q 449 8 414 0 q 378 -7 343 -9 q 308 -12 277 -12 l 277 -12 q 247 -12 214 -10 q 182 -7 149 -2 q 117 3 86 12 q 55 21 27 35 l 27 35 l 26 664 q 53 675 84 684 q 115 693 147 699 q 179 706 210 709 q 242 712 272 712 l 272 712 q 307 712 342 708 q 377 703 410 693 q 443 683 471 666 q 500 650 521 626 q 542 602 554 570 q 566 539 566 497 l 566 497 q 566 470 558 446 q 550 422 536 403 q 521 384 500 370 q 479 357 453 351 l 453 351 q 484 342 510 326 q 537 310 555 287 q 573 264 583 235 q 593 207 593 174 m 345 452 l 345 452 q 345 466 339 476 q 333 486 325 493 q 316 499 306 502 q 296 505 289 505 l 289 505 q 279 505 270 502 q 260 499 251 495 l 251 495 l 249 387 q 260 387 276 389 q 293 391 308 397 q 324 404 334 417 q 345 430 345 452 m 276 293 l 276 293 q 262 293 249 290 l 249 290 l 247 179 q 254 177 261 176 q 268 175 275 175 l 275 175 q 285 175 297 177 q 310 179 320 186 q 331 192 338 204 q 345 215 345 233 l 345 233 q 345 252 338 264 q 331 275 321 282 q 311 289 298 291 q 286 293 276 293"},"99":{"x_min":7,"x_max":501,"ha":513,"o":"m 491 667 l 491 667 l 473 461 q 459 465 445 466 q 432 468 417 468 l 417 468 q 383 468 351 459 q 320 450 296 432 q 271 414 257 386 q 243 359 243 321 l 243 321 q 243 294 251 274 q 259 253 274 240 q 289 227 310 220 q 331 213 357 213 l 357 213 q 375 213 394 217 q 413 220 432 227 q 451 233 469 241 q 486 250 501 259 l 501 259 l 494 29 q 475 20 453 12 q 431 4 407 -1 q 384 -7 361 -10 q 338 -13 317 -13 l 317 -13 q 248 -13 191 13 q 134 39 93 84 q 52 128 30 188 q 7 247 7 313 l 7 313 q 7 394 30 463 q 53 532 97 583 q 141 634 206 663 q 271 692 356 692 l 356 692 q 390 692 424 687 q 459 682 491 667"},"100":{"x_min":21,"x_max":578,"ha":583,"o":"m 578 388 l 578 388 q 578 319 561 265 q 543 211 511 169 q 480 127 437 98 q 393 69 341 50 q 290 31 231 22 q 173 14 111 14 l 111 14 q 88 14 66 15 q 44 16 21 19 l 21 19 l 35 654 q 89 671 146 678 q 203 686 259 686 l 259 686 q 329 686 387 666 q 446 646 488 609 q 531 571 554 515 q 578 460 578 388 m 266 483 l 246 200 q 275 205 300 218 q 324 231 341 251 q 359 271 368 296 q 378 321 378 350 l 378 350 q 378 377 372 402 q 366 426 353 444 q 340 461 318 472 q 297 482 266 483 l 266 483"},"101":{"x_min":8,"x_max":570,"ha":577,"o":"m 570 395 l 570 395 q 570 352 564 310 l 564 310 q 480 304 398 292 q 315 280 233 269 l 233 269 q 246 233 273 212 q 300 191 337 191 l 337 191 q 357 191 380 199 q 403 206 426 217 q 449 228 470 241 q 491 253 506 264 l 506 264 l 483 42 q 464 27 442 17 q 419 7 396 0 q 372 -6 347 -9 q 323 -12 299 -12 l 299 -12 q 251 -12 211 1 q 171 15 138 38 q 106 62 82 94 q 57 126 41 165 q 25 203 17 245 q 8 288 8 331 l 8 331 q 8 376 17 422 q 25 467 42 509 q 59 551 84 587 q 110 623 144 650 q 178 677 221 692 q 265 707 317 707 l 317 707 q 360 707 396 695 q 432 683 460 662 q 488 641 509 611 q 530 582 543 547 q 557 512 563 473 q 570 435 570 395 m 375 409 l 375 420 q 375 434 372 448 q 369 462 362 474 q 355 486 345 493 q 334 501 318 501 l 318 501 q 298 501 283 490 q 269 480 258 464 q 247 448 240 430 q 233 411 230 396 l 230 396 l 375 409"},"102":{"x_min":21,"x_max":487,"ha":488,"o":"m 37 694 l 487 694 q 484 648 481 604 q 479 559 475 513 l 475 513 l 268 502 l 268 440 l 448 440 l 438 289 l 267 284 l 268 15 l 21 10 l 37 694"},"103":{"x_min":5,"x_max":615,"ha":627,"o":"m 609 428 l 615 109 q 592 81 559 59 q 525 38 486 23 q 448 9 407 2 q 367 -5 330 -5 l 330 -5 q 259 -5 200 19 q 140 43 97 86 q 54 128 29 188 q 5 247 5 316 l 5 316 q 5 370 17 420 q 29 470 52 514 q 75 558 107 595 q 140 631 182 658 q 223 684 273 698 q 322 713 378 713 l 378 713 q 399 713 423 711 q 447 709 470 705 q 494 701 517 694 q 539 687 558 676 l 558 676 l 544 489 q 517 500 488 503 q 458 507 431 507 l 431 507 q 392 507 358 496 q 324 486 299 465 q 273 445 259 414 q 244 383 244 343 l 244 343 q 244 317 251 294 q 258 270 272 252 q 286 233 306 222 q 327 211 354 211 l 354 211 q 373 211 393 216 q 413 221 427 232 l 427 232 l 429 271 l 312 272 l 317 419 q 390 421 463 423 q 536 425 609 428 l 609 428"},"104":{"x_min":21,"x_max":604,"ha":626,"o":"m 589 687 l 604 20 l 360 8 l 358 214 l 246 214 l 239 0 l 21 0 l 39 687 l 271 676 l 257 325 l 365 325 l 366 692 l 589 687"},"105":{"x_min":20,"x_max":280,"ha":294,"o":"m 20 674 l 280 688 l 246 22 l 40 12 l 20 674"},"106":{"x_min":-7,"x_max":491,"ha":510,"o":"m 491 402 l 491 402 q 491 374 491 345 q 491 317 488 288 l 488 288 q 483 227 462 173 q 441 118 405 77 q 369 36 318 12 q 267 -12 200 -12 l 200 -12 q 174 -12 146 -7 q 118 -3 91 6 q 63 15 38 28 q 13 41 -7 58 l -7 58 l 23 260 q 52 232 87 215 q 123 197 164 197 l 164 197 q 191 197 209 205 q 228 213 240 227 q 252 240 260 259 q 267 277 270 298 q 273 318 274 340 q 274 362 274 384 l 274 384 q 274 461 267 538 q 259 615 253 692 l 253 692 l 477 707 q 491 555 491 402"},"107":{"x_min":21,"x_max":625,"ha":603,"o":"m 389 689 l 625 631 l 409 374 l 607 38 l 381 -2 l 232 199 l 225 8 l 21 0 l 37 699 l 265 687 l 247 485 l 389 689"},"108":{"x_min":21,"x_max":453,"ha":451,"o":"m 255 259 l 453 259 l 433 42 l 21 10 l 37 707 l 291 707 l 255 259"},"109":{"x_min":8,"x_max":878,"ha":898,"o":"m 878 331 l 878 331 q 878 261 874 192 q 870 123 864 53 l 864 53 l 613 41 q 624 126 633 211 q 642 296 642 382 l 642 382 q 642 387 642 401 q 641 414 640 431 q 639 448 636 467 q 634 485 631 500 q 627 516 622 525 q 616 535 609 535 l 609 535 q 592 535 582 522 q 572 509 568 491 q 563 473 562 454 q 561 436 561 424 l 561 424 q 561 403 562 383 q 563 362 563 341 l 563 341 q 563 265 559 190 q 556 115 550 39 l 550 39 l 319 30 q 330 115 339 200 q 347 285 347 370 l 347 370 q 347 375 347 390 q 346 404 345 421 q 344 439 341 458 q 339 477 335 493 q 332 509 326 519 q 321 529 313 529 l 313 529 q 301 529 292 520 q 284 510 279 495 q 274 480 271 462 q 269 443 267 426 q 266 408 266 393 q 266 378 265 371 l 265 371 l 254 15 l 8 15 q 16 97 24 180 q 32 263 38 346 q 44 429 48 512 q 52 595 52 678 l 52 678 l 285 688 l 284 631 q 294 645 308 658 q 322 672 337 683 q 353 694 370 701 q 387 708 406 708 l 406 708 q 430 708 449 704 q 468 701 483 692 q 499 683 510 668 q 522 652 531 629 l 531 629 q 546 646 562 661 q 578 675 596 686 q 613 696 634 702 q 654 708 679 708 l 679 708 q 727 708 760 690 q 793 671 815 641 q 837 611 850 572 q 862 533 869 491 q 875 449 877 407 q 878 366 878 331"},"110":{"x_min":14,"x_max":631,"ha":652,"o":"m 631 247 l 631 247 q 631 192 630 138 q 628 84 626 29 l 626 29 l 345 34 q 359 121 370 207 q 381 293 381 381 l 381 381 q 381 387 380 401 q 380 416 378 433 q 377 451 374 470 q 372 489 367 504 q 362 520 356 530 q 349 540 340 540 l 340 540 q 323 540 312 530 q 300 521 293 505 q 285 490 281 471 q 276 452 274 433 q 272 414 271 397 q 271 380 271 369 l 271 369 q 268 283 267 198 q 265 112 263 25 l 263 25 l 14 15 q 23 187 32 357 q 42 528 47 700 l 47 700 l 277 712 l 275 634 q 289 650 305 665 q 321 680 339 690 q 357 701 377 707 q 397 713 420 713 l 420 713 q 461 713 493 699 q 524 686 546 662 q 569 639 584 607 q 599 575 608 539 q 618 502 623 463 q 627 424 629 386 q 631 348 631 312 q 631 276 631 247"},"111":{"x_min":8,"x_max":628,"ha":638,"o":"m 628 374 l 628 374 q 628 330 618 288 q 608 247 589 211 q 569 175 542 145 q 514 115 480 93 q 445 72 405 60 q 364 48 319 48 l 319 48 q 275 48 235 59 q 195 70 161 91 q 126 111 98 139 q 70 168 50 203 q 30 238 19 278 q 8 318 8 361 l 8 361 q 8 404 19 445 q 29 485 48 521 q 67 558 95 588 q 122 618 156 640 q 190 662 229 674 q 269 687 313 687 l 313 687 q 384 687 442 665 q 500 643 542 602 q 583 561 606 503 q 628 445 628 374 m 412 361 l 412 361 q 412 382 406 402 q 399 422 388 437 q 376 453 359 462 q 341 472 319 472 l 319 472 q 296 472 278 463 q 260 455 247 441 q 234 426 227 407 q 220 388 220 366 l 220 366 q 220 346 226 325 q 232 305 244 288 q 255 271 273 261 q 290 251 313 251 l 313 251 q 336 251 354 260 q 373 269 385 284 q 398 300 405 320 q 412 340 412 361"},"112":{"x_min":26,"x_max":594,"ha":597,"o":"m 594 450 l 594 450 q 594 403 580 366 q 565 330 541 302 q 516 274 483 256 q 450 237 412 225 q 374 213 333 207 q 293 202 254 201 l 254 201 l 254 -7 l 26 -7 q 26 49 27 102 q 27 154 27 206 q 27 258 28 311 q 28 364 28 420 l 28 420 q 29 479 29 539 q 28 599 31 659 l 31 659 q 94 678 156 687 q 219 696 285 696 l 285 696 q 323 696 360 690 q 398 684 432 671 q 467 658 496 638 q 526 618 547 591 q 569 563 581 528 q 594 493 594 450 m 377 434 l 377 434 q 377 465 358 483 q 338 501 308 501 l 308 501 q 297 501 286 499 q 275 498 266 495 l 266 495 l 260 353 q 267 352 273 352 q 279 352 286 352 l 286 352 q 304 352 320 357 q 336 363 349 374 q 362 385 369 400 q 377 415 377 434"},"113":{"x_min":4,"x_max":681,"ha":691,"o":"m 681 363 l 681 363 q 681 289 654 222 q 626 154 571 104 l 571 104 l 638 23 l 459 -92 l 417 23 q 399 20 380 18 q 361 16 342 16 l 342 16 q 295 16 252 27 q 209 39 172 60 q 134 82 104 112 q 73 142 51 179 q 28 216 16 260 q 4 303 4 350 l 4 350 q 4 396 16 440 q 27 483 49 522 q 70 561 100 593 q 130 625 167 648 q 204 671 247 684 q 290 696 337 696 l 337 696 q 413 696 476 673 q 540 650 585 607 q 630 564 656 503 q 681 441 681 363 m 444 350 l 444 350 q 444 372 437 393 q 431 415 418 431 q 405 447 386 457 q 367 467 342 467 l 342 467 q 318 467 298 458 q 279 450 265 435 q 251 419 243 399 q 236 378 236 354 l 236 354 q 236 332 242 310 q 249 289 262 271 q 274 254 293 243 q 313 232 337 232 l 337 232 q 361 232 381 242 q 401 251 415 268 q 429 284 436 305 q 444 326 444 350"},"114":{"x_min":21,"x_max":597,"ha":606,"o":"m 597 471 l 597 471 q 597 433 591 402 q 584 371 570 345 q 556 319 533 297 q 511 275 479 255 l 479 255 l 595 48 l 375 5 l 300 213 l 240 211 l 231 8 l 21 8 q 23 119 26 229 q 28 340 31 451 l 31 451 q 32 507 33 563 q 34 618 37 674 l 37 674 q 71 687 104 695 q 137 703 171 708 q 204 712 239 714 q 273 716 309 716 l 309 716 q 365 716 417 700 q 469 685 509 654 q 549 624 573 578 q 597 532 597 471 m 378 455 l 378 455 q 378 476 373 493 q 367 510 356 522 q 345 535 329 542 q 313 549 291 549 l 291 549 q 281 549 271 548 q 262 546 253 544 l 253 544 l 246 362 l 257 362 q 278 362 300 368 q 322 373 339 384 q 356 396 367 413 q 378 431 378 455"},"115":{"x_min":14,"x_max":525,"ha":532,"o":"m 525 250 l 525 250 q 525 183 502 135 q 479 86 439 54 q 398 23 344 8 q 291 -7 229 -7 l 229 -7 q 205 -7 176 0 q 147 6 118 15 q 89 25 62 36 q 35 47 14 57 l 14 57 l 35 248 q 77 223 127 210 q 178 197 227 197 l 227 197 q 236 197 249 198 q 262 199 274 202 q 286 206 294 213 q 303 221 303 234 l 303 234 q 303 244 297 250 q 291 257 282 261 q 272 265 261 267 q 249 270 238 271 q 227 271 217 271 q 207 271 201 271 l 201 271 q 159 271 125 285 q 90 298 66 322 q 41 346 27 381 q 14 415 14 457 l 14 457 q 14 515 37 560 q 60 606 99 638 q 138 670 188 687 q 238 704 292 704 l 292 704 q 316 704 341 702 q 367 701 392 696 q 417 692 441 685 q 465 678 486 668 l 486 668 l 468 470 q 435 481 398 489 q 362 496 327 496 l 327 496 q 321 496 311 496 q 301 496 290 494 q 279 493 268 491 q 256 488 248 484 q 239 480 233 473 q 228 466 229 457 l 229 457 q 229 446 237 440 q 244 435 256 432 q 268 429 282 429 q 297 429 311 430 q 325 431 337 431 q 350 432 357 432 l 357 432 q 396 429 428 415 q 459 401 481 377 q 502 354 514 322 q 525 289 525 250"},"116":{"x_min":4,"x_max":542,"ha":545,"o":"m 10 688 l 542 688 l 537 481 l 392 476 l 374 22 l 168 12 l 149 465 l 4 457 l 10 688"},"117":{"x_min":17,"x_max":607,"ha":611,"o":"m 607 688 l 607 688 q 585 516 569 345 q 554 175 540 3 l 540 3 l 339 -12 l 348 63 q 338 52 325 44 q 313 36 298 31 q 283 25 268 23 q 252 21 238 21 l 238 21 q 205 22 175 34 q 146 47 122 68 q 97 88 78 116 q 58 144 45 174 q 31 205 24 236 q 17 268 17 298 l 17 298 q 17 342 19 389 q 21 436 25 483 q 29 531 36 577 q 43 624 54 666 l 54 666 q 114 663 174 661 q 234 658 293 659 l 293 659 q 282 617 271 574 q 260 531 251 488 q 243 445 237 401 q 232 358 232 313 l 232 313 q 232 303 233 284 q 234 265 238 247 q 242 228 251 214 q 259 200 275 200 l 275 200 q 293 200 308 216 q 323 232 334 259 q 345 286 353 321 q 361 356 367 394 q 373 433 376 472 q 379 511 381 545 q 383 580 384 607 q 384 634 384 649 l 384 649 q 384 659 384 668 q 383 678 382 688 l 382 688 q 414 687 445 686 q 477 686 508 686 l 508 686 q 533 686 557 686 q 582 686 607 688"},"118":{"x_min":-17,"x_max":624,"ha":614,"o":"m 399 699 l 624 685 l 445 24 l 203 11 l -17 648 l 215 670 l 309 299 l 399 699"},"119":{"x_min":3,"x_max":907,"ha":910,"o":"m 666 699 l 907 678 l 792 21 l 515 15 l 456 346 l 396 40 l 119 30 l 3 658 l 246 680 l 294 294 l 360 650 l 550 650 l 626 289 l 666 699"},"120":{"x_min":-19,"x_max":616,"ha":595,"o":"m 385 692 l 616 665 l 425 354 l 597 75 l 393 12 l 295 201 l 192 1 l -19 77 l 161 360 l -3 639 l 220 692 l 300 516 l 385 692"},"121":{"x_min":-20,"x_max":627,"ha":605,"o":"m 393 678 l 627 661 l 397 286 l 404 10 l 153 10 l 159 284 l -20 646 l 229 678 l 308 467 l 393 678"},"122":{"x_min":17,"x_max":483,"ha":496,"o":"m 474 692 l 483 517 l 259 234 l 465 234 l 472 27 l 37 10 l 17 201 l 272 514 l 19 496 l 17 692 l 474 692"},"123":{"x_min":-3,"x_max":436,"ha":410,"o":"m 436 737 l 383 607 q 357 618 328 618 l 328 618 q 298 618 283 607 q 269 596 269 574 l 269 574 q 269 558 273 542 q 278 526 283 511 q 289 496 293 480 q 298 464 298 448 l 298 448 q 298 408 269 388 q 241 368 188 368 l 188 368 q 214 363 236 351 q 258 338 273 322 q 289 306 297 286 q 306 267 306 247 l 306 247 q 306 230 300 215 q 294 199 288 183 q 281 167 275 152 q 270 136 270 119 l 270 119 q 270 104 280 91 q 290 79 306 70 q 322 61 341 56 q 360 51 379 49 l 379 49 l 307 -87 q 266 -88 227 -74 q 188 -61 158 -39 q 128 -16 110 13 q 92 42 92 72 l 92 72 q 92 89 98 106 q 104 123 111 139 q 118 155 124 172 q 130 188 130 206 l 130 206 q 130 224 118 239 q 105 254 86 264 q 67 273 43 278 q 20 282 -3 280 l -3 280 l 2 415 q 7 414 11 414 q 15 414 21 414 l 21 414 q 40 414 58 419 q 75 423 88 432 q 102 440 109 453 q 117 465 117 480 l 117 480 q 117 499 111 516 q 105 534 99 552 q 92 569 86 587 q 80 604 80 623 l 80 623 q 80 654 98 682 q 116 709 146 729 q 176 749 214 760 q 253 771 294 771 l 294 771 q 332 771 368 762 q 404 752 436 737 l 436 737"},"124":{"x_min":34,"x_max":252,"ha":287,"o":"m 252 -70 l 36 -70 l 34 758 l 252 753 l 252 -70"},"125":{"x_min":-33,"x_max":406,"ha":402,"o":"m 406 403 l 400 269 q 396 269 391 269 q 386 270 382 270 l 382 270 q 362 270 345 265 q 328 260 315 252 q 302 243 294 231 q 287 219 287 204 l 287 204 q 287 186 292 168 q 298 150 304 132 q 311 115 316 97 q 321 79 321 60 l 321 60 q 321 28 303 1 q 285 -25 256 -45 q 226 -65 188 -76 q 149 -87 109 -87 l 109 -87 q 71 -87 35 -78 q -1 -68 -33 -54 l -33 -54 l 20 77 q 33 72 47 69 q 61 65 75 65 l 75 65 q 104 65 120 77 q 136 88 136 110 l 136 110 q 136 126 131 142 q 125 158 120 173 q 114 188 109 204 q 104 220 104 236 l 104 236 q 104 275 132 296 q 161 316 215 315 l 215 315 q 188 320 166 333 q 144 345 128 361 q 113 377 104 396 q 96 416 96 436 l 96 436 q 96 453 102 469 q 107 485 114 500 q 121 516 127 532 q 133 548 133 565 l 133 565 q 133 581 123 593 q 112 605 96 614 q 81 622 61 627 q 42 632 23 635 l 23 635 l 95 771 q 136 772 175 759 q 213 745 243 723 q 273 700 292 671 q 310 642 310 612 l 310 612 q 310 595 304 579 q 298 562 291 545 q 284 529 278 512 q 272 495 272 478 l 272 478 q 272 459 285 445 q 297 430 317 420 q 336 411 360 406 q 384 401 406 403 l 406 403"},"126":{"x_min":15,"x_max":564,"ha":576,"o":"m 360 509 l 529 544 q 545 510 555 474 q 564 438 564 402 l 564 402 q 564 363 550 327 q 536 291 511 263 q 486 235 451 219 q 417 202 376 202 l 376 202 q 348 202 328 213 q 308 223 293 239 q 279 255 268 273 q 257 292 248 308 q 238 324 229 334 q 220 345 208 345 l 208 345 q 200 345 195 341 q 190 337 187 331 q 184 325 183 318 q 182 312 182 306 l 182 306 q 182 285 189 264 q 196 244 203 225 l 203 225 l 35 203 q 26 235 21 268 q 15 300 15 332 l 15 332 q 15 375 27 411 q 39 447 62 473 q 84 499 118 513 q 151 527 194 527 l 194 527 q 227 527 250 518 q 272 508 287 494 q 303 480 312 463 q 322 447 329 433 q 337 418 344 409 q 351 399 361 399 l 361 399 q 369 399 374 403 q 380 406 384 411 q 388 416 390 422 q 392 429 392 435 l 392 435 q 392 455 381 474 q 371 493 360 509 l 360 509"}}}
